<?xml version="1.0" encoding="UTF-8" standalone="no"?>
<svg
   xmlns:dc="http://purl.org/dc/elements/1.1/"
   xmlns:cc="http://creativecommons.org/ns#"
   xmlns:rdf="http://www.w3.org/1999/02/22-rdf-syntax-ns#"
   xmlns:svg="http://www.w3.org/2000/svg"
   xmlns="http://www.w3.org/2000/svg"
   xmlns:sodipodi="http://sodipodi.sourceforge.net/DTD/sodipodi-0.dtd"
   xmlns:inkscape="http://www.inkscape.org/namespaces/inkscape"
   inkscape:version="1.0beta1 (32d4812, 2019-09-19)"
   sodipodi:docname="ebook.svg"
   viewBox="0 0 793.70081 1122.5197"
   height="1122.5197"
   width="793.70081"
   xml:space="preserve"
   id="svg40"
   version="1.1">
  <metadata
     id="metadata46">
    <rdf:RDF>
      <cc:Work
         rdf:about="">
        <dc:format>image/svg+xml</dc:format>
        <dc:type
           rdf:resource="http://purl.org/dc/dcmitype/StillImage" />
        <dc:title></dc:title>
      </cc:Work>
    </rdf:RDF>
  </metadata>
  <defs
     id="defs44">
    <clipPath
       id="clipPath58"
       clipPathUnits="userSpaceOnUse">
      <path
         inkscape:connector-curvature="0"
         id="path56"
         d="M 0,0 H 595.2756 V 841.8898 H 0 Z" />
    </clipPath>
  </defs>
  <sodipodi:namedview
     inkscape:current-layer="g54"
     inkscape:window-maximized="0"
     inkscape:window-y="55"
     inkscape:window-x="33"
     inkscape:cy="561.25983"
     inkscape:cx="708.78134"
     inkscape:zoom="0.46324356"
     showgrid="false"
     id="namedview42"
     inkscape:window-height="728"
     inkscape:window-width="1126"
     inkscape:pageshadow="2"
     inkscape:pageopacity="0"
     guidetolerance="10"
     gridtolerance="10"
     objecttolerance="10"
     borderopacity="1"
     inkscape:document-rotation="0"
     bordercolor="#666666"
     pagecolor="#ffffff" />
  <g
     transform="matrix(1.3333333,0,0,-1.3333333,0,1122.5197)"
     inkscape:label="Untitled"
     inkscape:groupmode="layer"
     id="g48">
    <g
       id="g50" />
    <g
       id="g52">
      <g
         clip-path="url(#clipPath58)"
         id="g54">
        <text
           id="text62"
           style="font-variant:normal;font-weight:normal;font-size:24px;font-family:Lato;-inkscape-font-specification:Lato-Regular;writing-mode:lr-tb;fill:#000000;fill-opacity:1;fill-rule:nonzero;stroke:none"
           transform="matrix(1,0,0,-1,103.0305,733.1756)"><tspan
             id="tspan60"
             sodipodi:role="line"
             y="0"
             x="0 16.440001 26.112 39.456001 57.84 71.255997 75.888 83.975998 97.32 110.664 124.08 130.224 143.56799 155.832 161.88 166.51199 179.92799 192.504 201.45599 219.84 232.416 244.992 258.336 262.96799 276.216 289.56 295.70401 301.84799 310.79999 316.944 328.15201 338.56799 343.20001 355.36801 368.71201">Crowd funding: between politics and</tspan></text>
        <text
           id="text66"
           style="font-variant:normal;font-weight:normal;font-size:24px;font-family:Lato;-inkscape-font-specification:Lato-Regular;writing-mode:lr-tb;fill:#000000;fill-opacity:1;fill-rule:nonzero;stroke:none"
           transform="matrix(1,0,0,-1,235.9905,700.0556)"><tspan
             id="tspan64"
             sodipodi:role="line"
             y="0"
             x="0 12.168 25.511999 34.464001 40.608002 53.855999 67.199997 73.344002 79.487999 88.440002 94.584 105.792">antipolitics</tspan></text>
        <text
           id="text70"
           style="font-variant:normal;font-weight:300;font-size:12px;font-family:Lato;-inkscape-font-specification:Lato-Light;writing-mode:lr-tb;fill:#000000;fill-opacity:1;fill-rule:nonzero;stroke:none"
           transform="matrix(1,0,0,-1,223.7775,659.5796)"><tspan
             id="tspan68"
             sodipodi:role="line"
             y="0"
             x="0 7.092 13.644 20.136 25.968 30.732 37.284 43.776001 46.091999 53.82 56.664001 62.124001 68.255997 74.748001 79.019997 85.152 87.468002 96.444 102.936 109.428 114.888 120.72 123.564">Eduardo Vicente Gonçalv</tspan></text>
        <text
           id="text74"
           style="font-variant:normal;font-weight:300;font-size:12px;font-family:Lato;-inkscape-font-specification:Lato-Light;writing-mode:lr-tb;fill:#000000;fill-opacity:1;fill-rule:nonzero;stroke:none"
           transform="matrix(1,0,0,-1,353.1195,659.5796)"><tspan
             id="tspan72"
             sodipodi:role="line"
             y="0"
             x="0 6.132">es</tspan></text>
        <text
           id="text78"
           style="font-variant:normal;font-weight:300;font-size:12px;font-family:Lato;-inkscape-font-specification:Lato-Light;writing-mode:lr-tb;fill:#000000;fill-opacity:1;fill-rule:nonzero;stroke:none"
           transform="matrix(1,0,0,-1,94.7715,548.2196)"><tspan
             id="tspan76"
             sodipodi:role="line"
             y="0"
             x="0 7.7280002 10.044 14.316 20.808001 26.940001 32.099998 34.944 40.104 42.419998 47.580002 54.071999 60.624001 70.164001 73.008003 77.279999 81.552002 87.683998 94.236 96.552002 100.416 106.908 111.672 113.988 118.26 124.752 130.884 133.2 139.752 145.884 151.93201 156.696 162.828 168.96001 171.276 177.76801 181.632 183.948 193.06799 199.56 205.02 209.29201 215.784 220.548 222.864 229.356 233.22 235.536 242.65199 249.144 251.98801 254.832 261.32401 266.48401 272.97601 279.396">A thesis submitted for the degree of Doctor of Philosoph</tspan></text>
        <text
           id="text82"
           style="font-variant:normal;font-weight:300;font-size:12px;font-family:Lato;-inkscape-font-specification:Lato-Light;writing-mode:lr-tb;fill:#000000;fill-opacity:1;fill-rule:nonzero;stroke:none"
           transform="matrix(1,0,0,-1,380.5875,548.2196)"><tspan
             id="tspan80"
             y="0"
             x="0">y</tspan></text>
        <text
           id="text86"
           style="font-variant:normal;font-weight:300;font-size:12px;font-family:Lato;-inkscape-font-specification:Lato-Light;writing-mode:lr-tb;fill:#000000;fill-opacity:1;fill-rule:nonzero;stroke:none"
           transform="matrix(1,0,0,-1,385.6815,548.2196)"><tspan
             id="tspan84"
             sodipodi:role="line"
             y="0"
             x="0 2.3640001 4.6799998 13.8 19.931999 26.351999 32.183998 36.948002 41.220001 50.759998 56.891998 63.383999 67.655998 69.972 76.463997 80.328003 82.643997 88.907997 95.400002 100.86 103.704">. Department of Soci-</tspan></text>
        <text
           id="text90"
           style="font-variant:normal;font-weight:300;font-size:12px;font-family:Lato;-inkscape-font-specification:Lato-Light;writing-mode:lr-tb;fill:#000000;fill-opacity:1;fill-rule:nonzero;stroke:none"
           transform="matrix(1,0,0,-1,228.7725,515.0996)"><tspan
             id="tspan88"
             sodipodi:role="line"
             y="0"
             x="0 6.4920001 9.3360004 15.828 21.875999">ology</tspan></text>
        <text
           id="text94"
           style="font-variant:normal;font-weight:300;font-size:12px;font-family:Lato;-inkscape-font-specification:Lato-Light;writing-mode:lr-tb;fill:#000000;fill-opacity:1;fill-rule:nonzero;stroke:none"
           transform="matrix(1,0,0,-1,255.7545,515.0996)"><tspan
             id="tspan92"
             sodipodi:role="line"
             y="0"
             x="0 2.3640001 4.6799998 13.476 19.968 22.812">. Univ</tspan></text>
        <text
           id="text98"
           style="font-variant:normal;font-weight:300;font-size:12px;font-family:Lato;-inkscape-font-specification:Lato-Light;writing-mode:lr-tb;fill:#000000;fill-opacity:1;fill-rule:nonzero;stroke:none"
           transform="matrix(1,0,0,-1,284.3205,515.0996)"><tspan
             id="tspan96"
             sodipodi:role="line"
             y="0"
             x="0 6.132 10.896 16.056 18.9 23.172001 29.016001 31.332001 37.824001 41.688 44.004002 51.096001 56.256001 61.416">ersity of Esse</tspan></text>
        <text
           id="text102"
           style="font-variant:normal;font-weight:300;font-size:12px;font-family:Lato;-inkscape-font-specification:Lato-Light;writing-mode:lr-tb;fill:#000000;fill-opacity:1;fill-rule:nonzero;stroke:none"
           transform="matrix(1,0,0,-1,351.5205,515.0996)"><tspan
             id="tspan100"
             sodipodi:role="line"
             y="0"
             x="0 5.52">x.</tspan></text>
        <text
           y="-82.782097"
           x="179.52257"
           id="text106"
           style="font-style:italic;font-variant:normal;font-weight:normal;font-stretch:normal;font-size:10px;font-family:sans-serif;-inkscape-font-specification:'sans-serif Italic';font-variant-ligatures:normal;font-variant-caps:normal;font-variant-numeric:normal;font-variant-east-asian:normal;writing-mode:lr-tb;fill:#000000;fill-opacity:1;fill-rule:nonzero;stroke:none"
           transform="scale(1,-1)"><tspan
             y="-82.782097"
             x="179.52257"
             id="tspan104"
             sodipodi:role="line">For my grandma, who has taught me so much.</tspan></text>
        <text
           transform="scale(1,-1)"
           y="-400.69458"
           x="158.38951"
           style="font-variant:normal;font-weight:300;font-size:12px;font-family:Lato;-inkscape-font-specification:Lato-Light;writing-mode:lr-tb;fill:#000000;fill-opacity:1;fill-rule:nonzero;stroke:none;stroke-width:0.999998"
           id="text106-6"><tspan
             style="stroke-width:0.999998"
             x="158.38951 167.50951 173.34151 177.61351 183.74551 186.06151 192.55351 196.4175 198.73351 203.89351 210.3855 216.9375 226.47749 229.3215 234.48151 239.64151 242.4855 248.97751 255.46951 257.78552 261.64951 268.14151 272.90549 275.2215"
             y="-400.69458"
             sodipodi:role="line"
             id="tspan104-5">Date of submission for e</tspan></text>
        <text
           transform="scale(1,-1)"
           y="-400.69458"
           x="281.0235"
           style="font-variant:normal;font-weight:300;font-size:12px;font-family:Lato;-inkscape-font-specification:Lato-Light;writing-mode:lr-tb;fill:#000000;fill-opacity:1;fill-rule:nonzero;stroke:none;stroke-width:0.999998"
           id="text110-9"><tspan
             style="stroke-width:0.999998"
             x="281.0235 286.54349 292.37549 301.9155 304.75949 311.2515 317.0835 321.3555 324.19949 330.6915 337.1835 340.0275 342.34351 348.60751 354.7395 361.15948 365.43152 371.56351 381.10352 387.65549 393.78751 398.55151 400.86749 407.82748 414.78751 421.7475"
             y="-400.69458"
             sodipodi:role="line"
             id="tspan108-5">xamination: September 2018</tspan></text>
      </g>
    </g>
  </g>
</svg>
